<svg width="20" height="20" viewBox="0 0 20 20" fill="none" xmlns="http://www.w3.org/2000/svg">
<path fill-rule="evenodd" clip-rule="evenodd" d="M5.78125 7.65625C5.78125 6.62072 6.62072 5.78125 7.65625 5.78125H12.3438C13.3793 5.78125 14.2188 6.62072 14.2188 7.65625V8.62283C14.8396 8.89408 15.2734 9.51356 15.2734 10.2344V13.75H14.1016V12.9297H5.89844V13.75H4.72656V10.2344C4.72656 9.51356 5.16042 8.89408 5.78125 8.62283V7.65625ZM9.53125 8.47656H7.1875V7.65625C7.1875 7.39737 7.39737 7.1875 7.65625 7.1875H9.0625C9.32138 7.1875 9.53125 7.39737 9.53125 7.65625V8.47656ZM12.8125 8.47656H10.4688V7.65625C10.4688 7.39737 10.6786 7.1875 10.9375 7.1875H12.3438C12.6026 7.1875 12.8125 7.39737 12.8125 7.65625V8.47656ZM14.1016 11.7578H5.89844V10.2344C5.89844 9.91077 6.16077 9.64844 6.48438 9.64844H13.5156C13.8392 9.64844 14.1016 9.91077 14.1016 10.2344V11.7578Z" fill="white"/>
</svg>
