<svg width="17" height="16" viewBox="0 0 17 16" fill="none" xmlns="http://www.w3.org/2000/svg">
<path fill-rule="evenodd" clip-rule="evenodd" d="M4.875 0H2.625V1.5H2.25C1.00736 1.5 0 2.50736 0 3.75V14V16H2H14.5H16.5V14V3.75C16.5 2.50736 15.4926 1.5 14.25 1.5H13.875V0H11.625V1.5H4.875V0ZM2.25 3.5H14.25C14.3881 3.5 14.5 3.61193 14.5 3.75V14H2V3.75C2 3.61193 2.11193 3.5 2.25 3.5ZM3.375 5.625H5.625V7.875H3.375V5.625ZM3.375 9.375H5.625V11.625H3.375V9.375ZM9.375 5.625H7.125V7.875H9.375V5.625ZM7.125 9.375H9.375V11.625H7.125V9.375ZM13.125 5.625H10.875V7.875H13.125V5.625Z" fill="black"/>
</svg>
