<svg width="16" height="20" viewBox="0 0 16 20" fill="none" xmlns="http://www.w3.org/2000/svg">
<path d="M7.49873 14.5002L1 18.265V4.77C1 3.92785 1.00075 3.35538 1.03633 2.91262C1.071 2.48124 1.13386 2.26024 1.21091 2.10604C1.4045 1.71862 1.71862 1.4045 2.10604 1.21091C2.26024 1.13386 2.48124 1.071 2.91262 1.03633C3.35538 1.00075 3.92785 1 4.77 1H11.23C12.0721 1 12.6446 1.00075 13.0874 1.03633C13.5188 1.071 13.7398 1.13386 13.894 1.21091C14.2814 1.4045 14.5955 1.71862 14.7891 2.10604C14.8661 2.26024 14.929 2.48124 14.9637 2.91262C14.9992 3.35538 15 3.92785 15 4.77V18.265L8.50127 14.5002L8 14.2098L7.49873 14.5002Z" fill="black" fill-opacity="0.1" stroke="white" stroke-width="2"/>
</svg>
