<svg width="20" height="20" viewBox="0 0 20 20" fill="none" xmlns="http://www.w3.org/2000/svg">
<path d="M5.96412 10.875C7.37619 10.2566 8.50658 9.12619 9.125 7.71412C9.74343 9.12619 10.8738 10.2566 12.2859 10.875C10.8738 11.4934 9.74342 12.6238 9.125 14.0359C8.50657 12.6238 7.37619 11.4934 5.96412 10.875Z" stroke="white" stroke-width="1.25"/>
<path d="M13.3949 4.5257C13.4178 4.41078 13.5822 4.41078 13.6051 4.5257C13.7938 5.46893 14.5311 6.20621 15.4743 6.39486C15.5892 6.41784 15.5892 6.58215 15.4743 6.60514C14.5311 6.79379 13.7938 7.53107 13.6051 8.4743C13.5822 8.58922 13.4178 8.58922 13.3949 8.4743C13.2062 7.53107 12.4689 6.79379 11.5257 6.60514C11.4108 6.58215 11.4108 6.41784 11.5257 6.39486C12.4689 6.20621 13.2062 5.46893 13.3949 4.5257Z" fill="white"/>
</svg>
