<svg width="12" height="16" viewBox="0 0 12 16" fill="none" xmlns="http://www.w3.org/2000/svg">
<path d="M6.50127 11.6588L6 11.3685L5.49873 11.6588L1 14.265V4.77C1 3.92785 1.00075 3.35538 1.03633 2.91262C1.071 2.48124 1.13386 2.26024 1.21091 2.10604C1.4045 1.71862 1.71862 1.4045 2.10604 1.21091C2.26024 1.13386 2.48124 1.071 2.91262 1.03633C3.35538 1.00075 3.92785 1 4.77 1H7.23C8.07215 1 8.64462 1.00075 9.08738 1.03633C9.51876 1.071 9.73976 1.13386 9.89396 1.21091C10.2814 1.4045 10.5955 1.71862 10.7891 2.10604C10.8661 2.26024 10.929 2.48124 10.9637 2.91262C10.9992 3.35538 11 3.92785 11 4.77V14.265L6.50127 11.6588Z" stroke="black" stroke-width="2"/>
</svg>
