<svg width="14" height="18" viewBox="0 0 14 18" fill="none" xmlns="http://www.w3.org/2000/svg">
<path fill-rule="evenodd" clip-rule="evenodd" d="M7 0.0858154L7.70711 0.792922L11.2071 4.29292L9.79289 5.70714L8 3.91424V13H6V3.91424L4.20711 5.70714L2.79289 4.29292L6.29289 0.792922L7 0.0858154ZM4 7.00003H3.5C1.84315 7.00003 0.5 8.34318 0.5 10V15C0.5 16.6569 1.84315 18 3.5 18H10.5C12.1569 18 13.5 16.6569 13.5 15V10C13.5 8.34318 12.1569 7.00003 10.5 7.00003H10V9.00003H10.5C11.0523 9.00003 11.5 9.44775 11.5 10V15C11.5 15.5523 11.0523 16 10.5 16H3.5C2.94772 16 2.5 15.5523 2.5 15V10C2.5 9.44775 2.94772 9.00003 3.5 9.00003H4V7.00003Z" fill="black"/>
</svg>
